<svg xmlns="http://www.w3.org/2000/svg" version="1.1" xmlns:xlink="http://www.w3.org/1999/xlink" xmlns:svgjs="http://svgjs.dev/svgjs" width="2000" height="2000" viewBox="0 0 2000 2000"><g transform="matrix(1,0,0,1,0,0)"><svg viewBox="0 0 280 280" data-background-color="#fffbf6" preserveAspectRatio="xMidYMid meet" height="2000" width="2000" xmlns="http://www.w3.org/2000/svg" xmlns:xlink="http://www.w3.org/1999/xlink"><g id="tight-bounds" transform="matrix(1,0,0,1,0,0)"><svg viewBox="0 0 280 280" height="280" width="280"><g><svg viewBox="0 0 280 280" height="280" width="280"><g><svg viewBox="0 0 280 280" height="280" width="280"><g id="textblocktransform"><svg viewBox="0 0 280 280" height="280" width="280" id="textblock"><g><svg viewBox="0 0 280 280" height="280" width="280"><g transform="matrix(1,0,0,1,77.51438796010717,74.00336708925556)"><svg viewBox="0 0 124.97122407978567 131.99326582148888" height="131.99326582148888" width="124.97122407978567"><g id="icon-0"><svg version="1.0" xmlns="http://www.w3.org/2000/svg" xmlns:xlink="http://www.w3.org/1999/xlink" x="0" y="0" viewBox="0 0 94.68 100" enable-background="new 0 0 94.68 100" xml:space="preserve" id="jxe-0" width="124.97122407978567" height="131.99326582148888" class="icon-jxe-0" data-fill-palette-color="accent"><path d="M68.502 0C65.218 0.262 62.01 0.594 58.848 0.971 38.964 3.335 21.698 7.916 8.656 14.01 5.521 15.475 2.619 17.024 0 18.66V76.904L94.68 100V40.886zM86.021 89.009L8.656 70.126V52.7L86.021 71.922zM86.021 63.003L8.699 43.78 8.656 26.353 86.021 45.601z" fill="#ff9100" data-fill-palette-color="accent"></path></svg></g></svg></g><g id="text-0"><path d="M3.557 103.266l1.414-4.451 20.555 6.533 2.487-7.823 3.522 1.656-3.746 11.787z" fill="#ff9100" data-fill-palette-color="primary"></path><path d="M34.277 82.784c0.577 0.281 1.038 0.408 1.385 0.384 0.349-0.016 0.701-0.157 1.053-0.424v0l2.31 2.149c-0.553 0.846-1.147 1.448-1.782 1.808-0.636 0.36-1.405 0.483-2.309 0.37v0c1.182 1.831 1.328 3.663 0.436 5.496v0c-0.707 1.454-1.76 2.373-3.156 2.755-1.403 0.38-2.919 0.174-4.548-0.618v0c-1.899-0.923-3.057-2.215-3.476-3.875-0.416-1.666-0.077-3.622 1.016-5.87v0l0.662-1.361-1.226-0.596c-1.106-0.538-1.979-0.721-2.619-0.55-0.638 0.165-1.165 0.678-1.583 1.537v0c-0.506 1.039-0.849 2.47-1.029 4.292v0l-3.097-0.369c0.03-1.07 0.174-2.13 0.431-3.178 0.251-1.052 0.586-2.007 1.004-2.867v0c1.867-3.839 4.742-4.815 8.624-2.927v0zM32.958 90.033c0.514-1.058 0.179-2.216-1.006-3.476v0l-3.669-1.784-0.469 0.964c-0.546 1.124-0.693 2.067-0.439 2.829 0.25 0.768 0.907 1.411 1.971 1.928v0c0.901 0.438 1.659 0.614 2.274 0.527 0.612-0.081 1.058-0.411 1.338-0.988z" fill="#ff9100" data-fill-palette-color="primary"></path><path d="M29.68 61.934c0.785-1.155 1.819-1.786 3.102-1.891 1.293-0.107 2.638 0.314 4.037 1.264v0l11.93 8.104-2.546 3.747-11.507-7.817c-0.768-0.522-1.394-0.79-1.878-0.803-0.474-0.015-0.85 0.182-1.128 0.591v0c-0.578 0.851-0.347 2.236 0.692 4.153v0l11.259 7.648-2.546 3.747-16.1-10.936 2.213-3.259 2.284 1.152c-0.479-1.125-0.716-2.138-0.711-3.039 0.006-0.901 0.306-1.788 0.899-2.661z" fill="#ff9100" data-fill-palette-color="primary"></path><path d="M54.781 57.434l3.129 0.733c-0.114 1.532-0.719 2.892-1.816 4.08v0c-1.151 1.247-2.382 1.866-3.692 1.857-1.31-0.009-2.579-0.58-3.806-1.714v0l-8.322-7.682-1.55 1.679-2.408-2.223 1.55-1.679-3.159-2.916 2.654-3.702 3.571 3.297 2.502-2.71 2.109 2.547-2.202 2.386 8.321 7.682c0.869 0.802 1.646 0.833 2.33 0.092v0c0.218-0.236 0.376-0.471 0.475-0.707 0.104-0.241 0.209-0.58 0.314-1.02z" fill="#ff9100" data-fill-palette-color="primary"></path><path d="M64.585 40.209c0.143 0.168 0.52 0.668 1.13 1.499v0l-7.65 6.505c1.379 1.467 2.557 2.311 3.535 2.533 0.973 0.216 1.88-0.033 2.719-0.747v0c0.58-0.493 1.018-1.036 1.312-1.629 0.304-0.592 0.544-1.335 0.721-2.231v0l3.097 0.748c-0.226 2.385-1.255 4.356-3.088 5.915v0c-1.944 1.653-4.005 2.247-6.181 1.782-2.185-0.466-4.317-1.921-6.394-4.364v0c-2.082-2.448-3.233-4.803-3.453-7.062-0.215-2.264 0.584-4.167 2.395-5.708v0c1.736-1.476 3.624-1.999 5.666-1.568 2.046 0.436 4.109 1.878 6.191 4.327zM60.538 42.256l-0.169-0.199c-1.19-1.4-2.228-2.28-3.114-2.641-0.886-0.361-1.703-0.223-2.451 0.414v0c-0.692 0.589-0.955 1.352-0.79 2.289 0.171 0.933 0.887 2.219 2.149 3.857v0z" fill="#ff9100" data-fill-palette-color="primary"></path><path d="M70.906 24.441c0.472-0.304 0.94-0.502 1.405-0.595v0l1.734 4.046c-0.481 0.166-0.895 0.362-1.244 0.586v0c-0.787 0.506-1.186 1.244-1.198 2.213-0.018 0.973 0.282 2.21 0.899 3.712v0l5.793 9.001-3.81 2.451-10.533-16.367 3.312-2.131 2.112 2.669c-0.632-2.661-0.121-4.522 1.53-5.585z" fill="#ff9100" data-fill-palette-color="primary"></path><path d="M85.219 17.244c1.26-0.602 2.471-0.625 3.632-0.069 1.17 0.559 2.12 1.602 2.848 3.127v0l6.215 13.015-4.088 1.952-5.995-12.553c-0.4-0.838-0.806-1.385-1.216-1.641-0.402-0.252-0.826-0.272-1.272-0.059v0c-0.929 0.443-1.428 1.755-1.497 3.936v0l5.864 12.282-4.088 1.952-8.386-17.564 3.554-1.697 1.391 2.146c0.154-1.214 0.46-2.208 0.92-2.983 0.459-0.775 1.165-1.389 2.118-1.844z" fill="#ff9100" data-fill-palette-color="primary"></path><path d="M112.898 23.981c0.18 0.616 0.396 1.043 0.647 1.283 0.247 0.248 0.587 0.413 1.022 0.495v0l-0.038 3.154c-0.998 0.16-1.843 0.125-2.536-0.104-0.693-0.229-1.302-0.716-1.827-1.46v0c-0.56 2.106-1.819 3.445-3.774 4.017v0c-1.552 0.454-2.939 0.292-4.162-0.484-1.225-0.783-2.091-2.044-2.6-3.782v0c-0.593-2.026-0.416-3.753 0.532-5.178 0.954-1.428 2.63-2.492 5.028-3.194v0l1.453-0.425-0.383-1.309c-0.345-1.18-0.797-1.949-1.354-2.308-0.551-0.361-1.285-0.407-2.202-0.139v0c-1.109 0.325-2.399 1.032-3.869 2.124v0l-1.809-2.541c0.812-0.697 1.693-1.303 2.643-1.818 0.948-0.521 1.88-0.915 2.797-1.183v0c4.098-1.199 6.753 0.273 7.965 4.416v0zM106.645 27.878c1.129-0.33 1.761-1.358 1.897-3.082v0l-1.145-3.915-1.029 0.301c-1.199 0.351-1.996 0.876-2.39 1.576-0.4 0.702-0.434 1.62-0.102 2.755v0c0.281 0.962 0.661 1.641 1.138 2.038 0.471 0.398 1.015 0.507 1.631 0.327z" fill="#ff9100" data-fill-palette-color="primary"></path><path d="M134.507 0.019c1.294-0.075 2.45 0.073 3.469 0.442 1.019 0.37 2.017 0.971 2.996 1.805v0l-2.087 2.811c-0.668-0.557-1.31-0.958-1.927-1.204-0.617-0.246-1.282-0.348-1.995-0.307v0c-1.468 0.085-2.576 0.885-3.325 2.401-0.749 1.522-1.024 4.008-0.825 7.456v0c0.196 3.402 0.754 5.823 1.674 7.262 0.919 1.433 2.139 2.105 3.66 2.018v0c0.754-0.043 1.405-0.235 1.954-0.575 0.543-0.339 1.176-0.851 1.9-1.535v0l2.389 2.443c-0.729 0.932-1.631 1.717-2.705 2.354-1.068 0.637-2.285 0.995-3.653 1.074v0c-2.868 0.165-5.211-0.817-7.026-2.948-1.823-2.13-2.861-5.4-3.116-9.809v0c-0.168-2.915 0.098-5.373 0.8-7.375 0.694-2.008 1.717-3.536 3.068-4.584 1.352-1.048 2.935-1.625 4.749-1.729z" fill="#ff9100" data-fill-palette-color="primary"></path><path d="M158.316 22.307c-0.059 0.639-0.016 1.116 0.129 1.431 0.138 0.321 0.394 0.6 0.769 0.836v0l-1.197 2.919c-0.986-0.219-1.76-0.562-2.32-1.03-0.561-0.468-0.948-1.145-1.161-2.03v0c-1.296 1.752-2.959 2.534-4.988 2.346v0c-1.61-0.149-2.841-0.81-3.692-1.982-0.85-1.179-1.192-2.67-1.025-4.473v0c0.195-2.102 0.995-3.642 2.4-4.619 1.412-0.976 3.363-1.35 5.851-1.12v0l1.507 0.14 0.126-1.357c0.113-1.224-0.023-2.106-0.41-2.645-0.38-0.538-1.045-0.852-1.996-0.94v0c-1.151-0.107-2.611 0.077-4.379 0.551v0l-0.746-3.028c1.012-0.349 2.054-0.588 3.126-0.717 1.073-0.136 2.085-0.159 3.036-0.072v0c4.251 0.394 6.178 2.739 5.78 7.037v0zM151.068 23.629c1.171 0.108 2.137-0.614 2.898-2.168v0l0.376-4.062-1.068-0.098c-1.244-0.115-2.178 0.08-2.802 0.586-0.631 0.505-1 1.347-1.11 2.524v0c-0.092 0.998 0.011 1.769 0.31 2.313 0.292 0.544 0.757 0.845 1.396 0.905z" fill="#ff9100" data-fill-palette-color="primary"></path><path d="M169.154 1.47l4.514 0.615-6.625 26.939-4.399-1.081zM176.937 11.414l4.292 1.055-7.059 7.13 2.839 11.876-4.72-1.161-2.531-11.573z" fill="#ff9100" data-fill-palette-color="primary"></path><path d="M195.966 28.371c-0.084 0.204-0.355 0.768-0.813 1.692v0l-9.291-3.81c-0.67 1.899-0.88 3.333-0.628 4.303 0.255 0.964 0.892 1.655 1.912 2.073v0c0.705 0.289 1.388 0.428 2.05 0.418 0.665-0.002 1.436-0.13 2.313-0.384v0l0.756 3.095c-2.223 0.894-4.447 0.884-6.672-0.029v0c-2.361-0.969-3.835-2.526-4.42-4.673-0.589-2.155-0.275-4.717 0.941-7.684v0c1.22-2.973 2.783-5.077 4.69-6.309 1.913-1.23 3.97-1.394 6.17-0.492v0c2.108 0.865 3.439 2.302 3.994 4.314 0.552 2.017 0.218 4.513-1.002 7.486zM192.29 25.715l0.098-0.241c0.697-1.7 1.003-3.026 0.917-3.979-0.086-0.952-0.583-1.615-1.492-1.988v0c-0.841-0.345-1.64-0.228-2.396 0.35-0.751 0.58-1.564 1.807-2.441 3.679v0z" fill="#ff9100" data-fill-palette-color="primary"></path><path d="M215.763 53.352l-3.829-2.726 6.614-9.291-5.373-3.825-6.614 9.292-3.805-2.708 14.745-20.715 3.805 2.708-5.957 8.369 5.373 3.825 5.957-8.369 3.829 2.725z" fill="#ff9100" data-fill-palette-color="primary"></path><path d="M238.109 47.568c1.718 1.75 2.442 3.712 2.172 5.888-0.27 2.176-1.611 4.448-4.023 6.817v0c-2.312 2.271-4.596 3.549-6.853 3.836-2.256 0.296-4.237-0.423-5.94-2.158v0c-1.699-1.73-2.397-3.709-2.094-5.937 0.308-2.223 1.645-4.495 4.009-6.817v0c2.345-2.303 4.627-3.584 6.846-3.843 2.223-0.254 4.184 0.484 5.883 2.214zM235.671 49.963c-0.735-0.748-1.648-0.934-2.738-0.556-1.085 0.382-2.503 1.433-4.252 3.151v0c-1.769 1.737-2.854 3.145-3.256 4.222-0.397 1.083-0.228 1.999 0.507 2.748v0c0.74 0.753 1.655 0.941 2.744 0.563 1.085-0.382 2.512-1.442 4.281-3.179v0c1.769-1.737 2.849-3.14 3.242-4.209 0.388-1.074 0.212-1.987-0.528-2.74z" fill="#ff9100" data-fill-palette-color="primary"></path><path d="M255.218 69.708l-15.778 11.396-2.307-3.193 1.87-1.623c-1.178 0.092-2.193-0.023-3.045-0.347-0.848-0.319-1.568-0.887-2.158-1.705v0c-0.833-1.154-1.084-2.357-0.753-3.61 0.337-1.257 1.161-2.359 2.471-3.306v0l11.814-8.532 2.652 3.673-11.602 8.379c-1.235 0.892-1.551 1.755-0.949 2.589v0c0.344 0.477 0.837 0.772 1.479 0.885 0.642 0.113 1.415 0.082 2.32-0.093v0l11.334-8.185z" fill="#ff9100" data-fill-palette-color="primary"></path><path d="M261.887 81.079c1.044 2.055 1.251 4.138 0.622 6.249v0l-2.983-0.43c0.123-0.834 0.156-1.582 0.098-2.242-0.055-0.654-0.227-1.267-0.518-1.839v0c-0.321-0.631-0.743-1.043-1.267-1.234-0.521-0.185-1.077-0.128-1.667 0.172v0c-0.59 0.299-0.964 0.744-1.121 1.334-0.161 0.584-0.168 1.61-0.021 3.079v0c0.176 1.807 0.041 3.276-0.403 4.409-0.441 1.138-1.341 2.052-2.699 2.742v0c-1.68 0.853-3.31 0.935-4.889 0.245-1.57-0.686-2.816-1.938-3.739-3.755v0c-0.599-1.18-0.937-2.376-1.013-3.589-0.082-1.21 0.072-2.382 0.462-3.517v0l3.166 0.877c-0.452 1.766-0.356 3.283 0.288 4.552v0c0.366 0.721 0.846 1.193 1.439 1.417 0.593 0.223 1.229 0.163 1.908-0.182v0c0.506-0.257 0.872-0.555 1.097-0.895 0.228-0.333 0.369-0.787 0.422-1.36 0.05-0.58 0.017-1.391-0.1-2.434v0c-0.176-1.807-0.034-3.231 0.426-4.274 0.457-1.049 1.299-1.885 2.526-2.508v0c1.466-0.744 2.94-0.837 4.422-0.278 1.474 0.556 2.655 1.709 3.544 3.461z" fill="#ff9100" data-fill-palette-color="primary"></path><path d="M262.387 108.922c-0.208 0.072-0.811 0.242-1.807 0.509v0l-3.286-9.49c-1.868 0.753-3.082 1.545-3.643 2.376-0.555 0.828-0.651 1.764-0.291 2.805v0c0.249 0.72 0.597 1.324 1.042 1.814 0.441 0.498 1.047 0.991 1.818 1.481v0l-1.821 2.614c-2.14-1.076-3.604-2.75-4.391-5.024v0c-0.835-2.412-0.642-4.547 0.581-6.406 1.227-1.867 3.356-3.326 6.386-4.375v0c3.037-1.052 5.648-1.27 7.834-0.656 2.188 0.621 3.671 2.055 4.45 4.303v0c0.746 2.153 0.548 4.102-0.594 5.849-1.148 1.748-3.241 3.148-6.278 4.2zM261.948 104.407l0.246-0.085c1.736-0.601 2.933-1.249 3.591-1.944 0.658-0.694 0.826-1.506 0.504-2.434v0c-0.297-0.859-0.913-1.381-1.847-1.566-0.932-0.179-2.39 0.022-4.374 0.602v0z" fill="#ff9100" data-fill-palette-color="primary"></path><path d="M3.119 142.958c0-5.852 4.744-10.596 10.596-10.596 5.852 0 10.596 4.744 10.596 10.596 0 5.852-4.744 10.596-10.596 10.597-5.852 0-10.596-4.744-10.596-10.597z" fill="#ff9100" data-fill-palette-color="primary"></path><path d="M255.689 142.958c0-5.852 4.744-10.596 10.596-10.596 5.852 0 10.596 4.744 10.596 10.596 0 5.852-4.744 10.596-10.596 10.597-5.852 0-10.596-4.744-10.596-10.597z" fill="#ff9100" data-fill-palette-color="primary"></path></g><g id="text-1"><path d="M33.472 173.143l1.415 4.451-20.555 6.533 2.487 7.823-3.833 0.681-3.746-11.786z" fill="#000000" data-fill-palette-color="secondary"></path><path d="M25.247 207.525c-0.577 0.281-0.962 0.565-1.157 0.852-0.203 0.285-0.309 0.648-0.317 1.09v0l-3.116 0.491c-0.324-0.957-0.432-1.796-0.322-2.518 0.11-0.722 0.488-1.404 1.134-2.045v0c-2.17-0.2-3.701-1.216-4.593-3.05v0c-0.707-1.454-0.78-2.849-0.218-4.184 0.567-1.339 1.665-2.404 3.293-3.196v0c1.899-0.923 3.63-1.038 5.195-0.342 1.567 0.701 2.897 2.176 3.99 4.423v0l0.662 1.361 1.226-0.596c1.106-0.538 1.789-1.111 2.049-1.721 0.264-0.604 0.186-1.335-0.231-2.195v0c-0.506-1.039-1.419-2.193-2.742-3.459v0l2.203-2.208c0.823 0.684 1.568 1.452 2.234 2.302 0.672 0.847 1.217 1.7 1.635 2.559v0c1.867 3.839 0.86 6.703-3.021 8.591v0zM20.358 202.012c0.514 1.058 1.633 1.509 3.356 1.354v0l3.669-1.784-0.47-0.964c-0.546-1.124-1.198-1.821-1.953-2.093-0.759-0.277-1.67-0.157-2.734 0.36v0c-0.901 0.438-1.507 0.926-1.818 1.464-0.314 0.531-0.33 1.086-0.05 1.663z" fill="#000000" data-fill-palette-color="secondary"></path><path d="M46.626 212.471c0.785 1.155 0.99 2.349 0.615 3.581-0.377 1.241-1.264 2.337-2.662 3.287v0l-11.93 8.104-2.546-3.747 11.508-7.817c0.768-0.522 1.248-1.005 1.438-1.45 0.189-0.435 0.144-0.857-0.133-1.266v0c-0.578-0.851-1.95-1.147-4.117-0.888v0l-11.258 7.648-2.546-3.747 16.1-10.937 2.214 3.258-1.912 1.699c1.223-0.031 2.252 0.122 3.087 0.459 0.835 0.337 1.549 0.943 2.142 1.816z" fill="#000000" data-fill-palette-color="secondary"></path><path d="M45.886 236.695l-0.981 3.06c-1.518-0.236-2.825-0.947-3.922-2.135v0c-1.151-1.247-1.67-2.523-1.556-3.829 0.114-1.305 0.784-2.524 2.011-3.657v0l8.322-7.682-1.55-1.679 2.408-2.223 1.55 1.679 3.159-2.917 3.479 2.941-3.572 3.297 2.502 2.71-2.707 1.899-2.203-2.386-8.322 7.682c-0.869 0.802-0.961 1.574-0.277 2.316v0c0.218 0.236 0.44 0.412 0.667 0.53 0.232 0.123 0.562 0.254 0.992 0.394z" fill="#000000" data-fill-palette-color="secondary"></path><path d="M65.183 245.005c-0.143 0.168-0.576 0.62-1.298 1.357v0l-7.651-6.505c-1.226 1.597-1.87 2.896-1.931 3.896-0.057 0.995 0.335 1.85 1.174 2.564v0c0.58 0.493 1.186 0.838 1.819 1.033 0.633 0.205 1.405 0.322 2.318 0.353v0l-0.241 3.176c-2.39 0.16-4.502-0.539-6.334-2.097v0c-1.944-1.653-2.862-3.591-2.753-5.814 0.109-2.232 1.202-4.569 3.279-7.012v0c2.082-2.448 4.22-3.963 6.416-4.544 2.2-0.576 4.206-0.094 6.018 1.447v0c1.736 1.476 2.555 3.256 2.458 5.34-0.101 2.089-1.193 4.358-3.274 6.806zM62.512 241.339l0.168-0.198c1.19-1.4 1.892-2.566 2.106-3.498 0.214-0.932-0.054-1.716-0.801-2.352v0c-0.692-0.589-1.488-0.726-2.387-0.412-0.894 0.319-2.048 1.232-3.462 2.74v0z" fill="#000000" data-fill-palette-color="secondary"></path><path d="M81.96 244.299c0.472 0.304 0.846 0.648 1.123 1.033v0l-2.963 3.254c-0.351-0.369-0.7-0.665-1.049-0.89v0c-0.787-0.506-1.623-0.564-2.51-0.173-0.893 0.387-1.895 1.172-3.007 2.356v0l-5.792 9.001-3.81-2.452 10.533-16.367 3.313 2.132-1.556 3.027c2.16-1.677 4.066-1.984 5.718-0.921z" fill="#000000" data-fill-palette-color="secondary"></path><path d="M94.046 250.186c1.26 0.602 2.039 1.529 2.337 2.782 0.301 1.262 0.087 2.655-0.641 4.181v0l-6.215 13.014-4.088-1.952 5.994-12.553c0.4-0.838 0.571-1.497 0.511-1.977-0.056-0.471-0.308-0.813-0.754-1.027v0c-0.929-0.443-2.262-0.007-4.001 1.31v0l-5.865 12.282-4.088-1.952 8.387-17.564 3.554 1.698-0.794 2.43c1.04-0.644 2.006-1.03 2.897-1.16 0.891-0.13 1.813 0.033 2.766 0.488z" fill="#000000" data-fill-palette-color="secondary"></path><path d="M110.079 271.574c-0.18 0.616-0.229 1.092-0.147 1.43 0.074 0.342 0.272 0.664 0.594 0.967v0l-1.731 2.637c-0.926-0.403-1.62-0.888-2.081-1.455-0.461-0.566-0.711-1.305-0.752-2.214v0c-1.607 1.472-3.389 1.922-5.344 1.35v0c-1.552-0.454-2.633-1.338-3.245-2.652-0.609-1.32-0.66-2.849-0.152-4.586v0c0.593-2.026 1.672-3.385 3.239-4.076 1.573-0.689 3.558-0.682 5.957 0.02v0l1.453 0.425 0.382-1.308c0.345-1.18 0.38-2.071 0.104-2.675-0.27-0.601-0.863-1.036-1.78-1.304v0c-1.109-0.325-2.577-0.423-4.404-0.296v0l-0.154-3.115c1.06-0.149 2.129-0.185 3.206-0.106 1.079 0.072 2.077 0.242 2.994 0.51v0c4.098 1.199 5.541 3.869 4.329 8.012v0zM102.711 271.486c1.129 0.33 2.215-0.194 3.259-1.573v0l1.146-3.915-1.03-0.301c-1.199-0.351-2.153-0.338-2.862 0.039-0.716 0.375-1.239 1.131-1.571 2.266v0c-0.281 0.962-0.328 1.739-0.139 2.33 0.183 0.589 0.582 0.974 1.197 1.154z" fill="#000000" data-fill-palette-color="secondary"></path><path d="M136.373 253.539c1.294 0.075 2.426 0.354 3.395 0.838 0.969 0.484 1.892 1.197 2.768 2.137v0l-2.396 2.553c-0.599-0.63-1.191-1.103-1.775-1.418-0.584-0.315-1.233-0.493-1.947-0.534v0c-1.468-0.085-2.66 0.583-3.579 2.003-0.919 1.426-1.478 3.863-1.676 7.312v0c-0.196 3.402 0.08 5.871 0.827 7.406 0.748 1.529 1.883 2.337 3.404 2.425v0c0.754 0.043 1.423-0.072 2.008-0.346 0.578-0.275 1.266-0.71 2.063-1.307v0l2.093 2.701c-0.832 0.842-1.818 1.518-2.958 2.028-1.134 0.51-2.384 0.726-3.752 0.647v0c-2.868-0.165-5.082-1.411-6.641-3.736-1.566-2.326-2.222-5.693-1.967-10.102v0c0.168-2.915 0.715-5.326 1.642-7.234 0.92-1.915 2.112-3.315 3.575-4.201 1.463-0.886 3.102-1.277 4.916-1.172z" fill="#000000" data-fill-palette-color="secondary"></path><path d="M159.242 273.609c0.059 0.639 0.189 1.1 0.389 1.384 0.195 0.291 0.497 0.518 0.909 0.68v0l-0.64 3.089c-1.01-0.034-1.833-0.23-2.47-0.586-0.637-0.357-1.142-0.951-1.514-1.783v0c-0.953 1.96-2.443 3.034-4.473 3.222v0c-1.61 0.149-2.941-0.275-3.992-1.271-1.052-1.003-1.662-2.406-1.829-4.209v0c-0.195-2.102 0.309-3.763 1.512-4.981 1.209-1.219 3.058-1.944 5.546-2.174v0l1.506-0.14-0.125-1.357c-0.113-1.224-0.409-2.066-0.888-2.525-0.472-0.46-1.184-0.645-2.135-0.557v0c-1.151 0.107-2.552 0.555-4.204 1.345v0l-1.289-2.839c0.931-0.529 1.911-0.955 2.941-1.279 1.03-0.33 2.02-0.539 2.972-0.627v0c4.251-0.394 6.576 1.559 6.974 5.856v0zM152.359 276.239c1.171-0.108 1.988-0.996 2.451-2.662v0l-0.376-4.062-1.068 0.099c-1.244 0.115-2.126 0.479-2.647 1.09-0.527 0.612-0.736 1.507-0.627 2.685v0c0.092 0.998 0.335 1.737 0.729 2.218 0.387 0.481 0.899 0.692 1.538 0.632z" fill="#000000" data-fill-palette-color="secondary"></path><path d="M160.782 250.402l4.284-1.549 6.625 26.939-4.399 1.082zM172.289 255.602l4.292-1.055-2.947 9.59 8.023 9.205-4.72 1.16-7.61-9.079z" fill="#000000" data-fill-palette-color="secondary"></path><path d="M195.616 256.692c0.084 0.204 0.287 0.796 0.61 1.776v0l-9.292 3.811c0.856 1.823 1.714 2.991 2.575 3.504 0.858 0.507 1.797 0.552 2.817 0.134v0c0.705-0.289 1.289-0.669 1.753-1.141 0.472-0.468 0.932-1.101 1.377-1.898v0l2.712 1.672c-0.955 2.197-2.545 3.752-4.771 4.665v0c-2.361 0.969-4.504 0.894-6.428-0.223-1.933-1.121-3.508-3.165-4.725-6.133v0c-1.22-2.973-1.583-5.569-1.092-7.785 0.498-2.219 1.847-3.78 4.048-4.682v0c2.108-0.865 4.066-0.776 5.873 0.267 1.81 1.049 3.324 3.06 4.543 6.033zM191.133 257.383l-0.099-0.242c-0.697-1.7-1.411-2.859-2.141-3.476-0.73-0.618-1.549-0.74-2.458-0.368v0c-0.841 0.345-1.328 0.989-1.461 1.932-0.127 0.94 0.155 2.385 0.846 4.333v0z" fill="#000000" data-fill-palette-color="secondary"></path><path d="M227.05 248.421l-3.829 2.726-6.614-9.292-5.373 3.824 6.614 9.292-3.805 2.708-14.745-20.715 3.805-2.708 5.957 8.369 5.373-3.824-5.957-8.369 3.829-2.726z" fill="#000000" data-fill-palette-color="secondary"></path><path d="M223.493 223.994c1.718-1.75 3.667-2.509 5.848-2.278 2.18 0.231 4.476 1.531 6.888 3.899v0c2.312 2.271 3.632 4.531 3.959 6.782 0.337 2.251-0.347 4.244-2.051 5.979v0c-1.699 1.73-3.665 2.464-5.898 2.201-2.228-0.268-4.524-1.563-6.888-3.885v0c-2.345-2.303-3.667-4.562-3.966-6.775-0.294-2.218 0.409-4.192 2.108-5.923zM225.931 226.389c-0.735 0.748-0.904 1.664-0.506 2.747 0.402 1.078 1.478 2.477 3.227 4.195v0c1.769 1.737 3.196 2.797 4.281 3.179 1.09 0.378 2.003 0.192 2.737-0.556v0c0.74-0.753 0.911-1.671 0.514-2.755-0.402-1.078-1.487-2.486-3.256-4.223v0c-1.769-1.737-3.191-2.792-4.266-3.165-1.081-0.368-1.991-0.176-2.731 0.578z" fill="#000000" data-fill-palette-color="secondary"></path><path d="M239.439 204.813l15.779 11.395-2.306 3.194-2.128-1.265c0.458 1.089 0.667 2.089 0.627 3-0.036 0.905-0.349 1.767-0.939 2.585v0c-0.833 1.154-1.897 1.77-3.191 1.85-1.299 0.076-2.604-0.36-3.915-1.307v0l-11.813-8.532 2.652-3.673 11.603 8.38c1.235 0.892 2.154 0.921 2.756 0.086v0c0.344-0.477 0.469-1.038 0.374-1.682-0.094-0.645-0.367-1.369-0.817-2.173v0l-11.334-8.186z" fill="#000000" data-fill-palette-color="secondary"></path><path d="M243.621 195.563c1.044-2.055 2.603-3.452 4.679-4.189v0l1.413 2.662c-0.746 0.393-1.369 0.807-1.868 1.244-0.496 0.43-0.889 0.931-1.179 1.503v0c-0.321 0.631-0.403 1.215-0.248 1.751 0.158 0.53 0.532 0.945 1.121 1.244v0c0.59 0.299 1.169 0.339 1.739 0.119 0.566-0.215 1.399-0.815 2.499-1.8v0c1.355-1.208 2.621-1.966 3.797-2.276 1.179-0.315 2.448-0.128 3.806 0.561v0c1.68 0.853 2.708 2.12 3.083 3.803 0.372 1.673 0.097 3.418-0.826 5.234v0c-0.599 1.18-1.366 2.158-2.3 2.935-0.928 0.78-1.966 1.347-3.112 1.702v0l-1.16-3.073c1.693-0.677 2.861-1.65 3.505-2.919v0c0.366-0.721 0.464-1.387 0.295-1.997-0.17-0.611-0.594-1.088-1.273-1.433v0c-0.506-0.257-0.963-0.377-1.369-0.358-0.403 0.012-0.853 0.167-1.348 0.462-0.498 0.302-1.133 0.807-1.905 1.517v0c-1.355 1.208-2.589 1.934-3.702 2.177-1.116 0.25-2.288 0.063-3.516-0.559v0c-1.466-0.744-2.41-1.88-2.834-3.406-0.421-1.518-0.187-3.152 0.703-4.904z" fill="#000000" data-fill-palette-color="secondary"></path><path d="M261.515 176.693c0.208 0.072 0.787 0.311 1.735 0.718v0l-3.286 9.489c1.933 0.563 3.377 0.692 4.331 0.387 0.948-0.308 1.603-0.983 1.964-2.025v0c0.249-0.72 0.35-1.41 0.303-2.069-0.039-0.664-0.209-1.427-0.512-2.288v0l3.047-0.928c1.016 2.169 1.131 4.39 0.344 6.663v0c-0.835 2.412-2.308 3.97-4.419 4.674-2.119 0.709-4.694 0.538-7.725-0.511v0c-3.037-1.052-5.224-2.495-6.561-4.331-1.335-1.841-1.613-3.886-0.835-6.133v0c0.746-2.153 2.107-3.562 4.084-4.228 1.983-0.664 4.494-0.47 7.53 0.582zM259.068 180.513l-0.246-0.086c-1.736-0.601-3.077-0.833-4.023-0.693-0.946 0.139-1.58 0.673-1.902 1.6v0c-0.297 0.859-0.137 1.65 0.483 2.374 0.621 0.717 1.891 1.461 3.809 2.231v0z" fill="#000000" data-fill-palette-color="secondary"></path></g></svg></g></svg></g></svg></g><g></g></svg></g><defs></defs></svg><rect width="280" height="280" fill="none" stroke="none" visibility="hidden"></rect></g></svg></g></svg>